<svg xmlns="http://www.w3.org/2000/svg" width="265" height="77" viewBox="0 0 265 77">
  <defs>
    <style>
      .cls-1 {
        fill: #d09465;
        fill-rule: evenodd;
      }
    </style>
  </defs>
  <path id="Rectangle_1_copy_2" data-name="Rectangle 1 copy 2" class="cls-1" d="M53.2,26.235q-2.737-2.445-7.58-2.446-0.388,0-6.3.194-4.553-.193-4.989-0.194-0.726,0-.726,1.453l4.068,1.066V55.174L33.61,56.239q0,1.453.726,1.453l5.376-.388q8.573,0.388,8.912.388a9.985,9.985,0,0,0,7.313-2.664,8.923,8.923,0,0,0,2.712-6.635,8.258,8.258,0,0,0-2.058-5.449,10.713,10.713,0,0,0-5.933-3.366,8.635,8.635,0,0,0,3.9-3.1,7.694,7.694,0,0,0,1.38-4.407A7.576,7.576,0,0,0,53.2,26.235ZM41.117,54.883l0.436-13.464,4.94-.581a8.035,8.035,0,0,1,6.127,2.276,7.448,7.448,0,0,1,2.155,5.279,7.294,7.294,0,0,1-1.889,5.085,7.075,7.075,0,0,1-5.521,2.083,34.17,34.17,0,0,1-6.248-.678h0Zm9.251-27.316a6.261,6.261,0,0,1,1.937,4.577,6.777,6.777,0,0,1-1.792,4.65,7.271,7.271,0,0,1-4.989,2.3H41.553L41.117,26.308l3.875-.678A7.269,7.269,0,0,1,50.368,27.567ZM64.8,36.793q-3.487,3.173-3.487,9.057t3.269,9.057a12.016,12.016,0,0,0,8.742,3.172,12.423,12.423,0,0,0,8.887-3.221q3.414-3.221,3.415-9.178t-3.39-9.009a12.468,12.468,0,0,0-8.669-3.051A12.535,12.535,0,0,0,64.8,36.793Zm8.67-.848a9.089,9.089,0,0,1,3.4.665s-0.186,2.817-.157,8.488c0.032,6.074,0,9.687,0,9.687s-1.737.194-3.245,0.194a29.976,29.976,0,0,1-3.536-.194s0.093-3.642,0-7.749a97.871,97.871,0,0,1,.172-10.428A10.206,10.206,0,0,1,73.47,35.946Zm17.823,0.848q-3.487,3.173-3.487,9.057t3.269,9.057a12.016,12.016,0,0,0,8.742,3.172,12.426,12.426,0,0,0,8.888-3.221q3.414-3.221,3.414-9.178t-3.39-9.009A13.77,13.77,0,0,0,91.293,36.793Zm8.669-.848a8.206,8.206,0,0,1,3.391.92s-0.032,2.994,0,9.2c0.028,5.479,0,8.718,0,8.718a31.86,31.86,0,0,1-3.391.194,27.43,27.43,0,0,1-3.39-.194s0.015-2.628,0-8.233c-0.017-6.5,0-9.687,0-9.687A10.011,10.011,0,0,1,99.962,35.946Zm15.644,19.567-3.1.678q0,1.5.872,1.5l4.02-.291,4.359,0.291q0.822,0,.823-1.5l-3.681-.678,0.339-8.524,2.809-.339,8.524,12.06,2.422-.727L125,45.439l5.424-9.2,2.47-.775q0-1.453-.823-1.453l-3.342.145-2.422-.145q-0.823,0-.823,1.5l2.034,0.63-4.8,8.718h-3.438L118.9,36.188l2.761-.727q0-1.453-.824-1.453l-3.438.145q-3.294-.145-4.02-0.145-0.872,0-.872,1.5l3.1,0.678V55.513Zm41.918-10.365a12.659,12.659,0,0,0-4.238-3.778l-8.331-4.746q-3.632-2.082-3.632-5.425a6.885,6.885,0,0,1,.242-1.937q2.228-3.632,7.168-3.632a12.67,12.67,0,0,1,5.376,1.211v4.892q0,0.679,2.034.678l1.26-7.459a24.166,24.166,0,0,0-8.379-1.744,11.8,11.8,0,0,0-8.113,2.64,8.093,8.093,0,0,0-1.719,10.607,9.791,9.791,0,0,0,3.681,3.414l8.572,4.892q3.44,1.986,3.439,5.328A5.537,5.537,0,0,1,153.14,54.3q-1.743,1.647-5.642,1.647a12.708,12.708,0,0,1-7.047-2.034V48.538q0-.581-2.083-0.581-0.193,0-1.113,7.991a26.343,26.343,0,0,0,10.388,2.325,13.626,13.626,0,0,0,8.161-2.3,7.552,7.552,0,0,0,3.2-6.514A7.669,7.669,0,0,0,157.524,45.148Zm22.932-.727H168.687L168.3,36.188l3.245-.727q0-1.453-.823-1.453l-3.923.145q-3.294-.145-4.02-0.145-0.871,0-.872,1.5l3.1,0.678V55.513l-3.1.678q0,1.5.872,1.5l4.02-.291,3.923,0.291q0.822,0,.823-1.5l-3.245-.678,0.339-8.573,11.818-.484,0.387,9.057-3.245.678q0,1.5.872,1.5l4.02-.291,3.923,0.291q0.823,0,.823-1.5l-3.1-.678V36.188l3.1-.727q0-1.453-.823-1.453l-3.923.145q-3.294-.145-4.02-0.145-0.871,0-.872,1.5l3.245,0.678Zm26.686,12.689,0.291-5.376a5.067,5.067,0,0,0-1.478.145,0.906,0.906,0,0,0-.557.678l-0.823,2.761h-9.3l0.387-8.379,9.009-.533V44.421h-8.96l-0.436-8.04,8.863-.1v2.809q0,0.727,1.986.727L207,34.687a0.582,0.582,0,0,0-.242-0.509,2.606,2.606,0,0,0-1.211-.169l-11.721.145q-3.294-.145-4.02-0.145-0.871,0-.872,1.5l3.1,0.678V55.513l-3.1.678q0,1.5.872,1.5l4.02-.291,11.963,0.291q1.258,0,1.356-.581h0Zm18.4,0,0.291-5.376a5.054,5.054,0,0,0-1.477.145,0.9,0.9,0,0,0-.557.678l-0.824,2.761h-7.8V36.188l3.1-.727q0-1.453-.823-1.453l-3.923.145-4.02-.145q-0.871,0-.872,1.5l3.1,0.678V55.513l-3.1.678q0,1.5.872,1.5l4.02-.291,10.655,0.291q1.258,0,1.356-.581h0Zm17.145-12.2H234.07l-0.436-8.524,7.8-.1v2.809q0,0.727,1.985.727l0.872-5.134a0.565,0.565,0,0,0-.266-0.509,2.62,2.62,0,0,0-1.187-.169l-10.655.145q-3.294-.145-4.02-0.145-0.871,0-.872,1.5l3.1,0.678V55.513l-3.1.678q0,1.5.872,1.5l4.02-.291,4.795,0.291q0.824,0,.823-1.5l-4.117-.678,0.339-8.088,8.67-.533V44.906ZM68.438,38.813h9.719v0.969H68.438V38.813Zm0,2.406h9.719v0.969H68.438V41.219Zm26.844-2.406h9.313v0.969H95.281V38.813Zm0,2.406h9.313v0.969H95.281V41.219Z"/>
</svg>
